solid OpenSCAD_Model
  facet normal 1 -0 0
    outer loop
      vertex 55 0 5
      vertex 55 100 0
      vertex 55 100 5
    endloop
  endfacet
  facet normal 1 0 0
    outer loop
      vertex 55 100 0
      vertex 55 0 5
      vertex 55 0 0
    endloop
  endfacet
  facet normal -0 0 1
    outer loop
      vertex 12.347 4.56366 5
      vertex 55 0 5
      vertex 12.347 35.4363 5
    endloop
  endfacet
  facet normal 0 0 1
    outer loop
      vertex 55 0 5
      vertex 12.347 4.56366 5
      vertex 13.1 3 5
    endloop
  endfacet
  facet normal -0 0 1
    outer loop
      vertex 12.2779 35.3412 5
      vertex 12.347 4.56366 5
      vertex 12.347 35.4363 5
    endloop
  endfacet
  facet normal 0 0 1
    outer loop
      vertex 12.2779 35.3412 5
      vertex 12.2779 4.65876 5
      vertex 12.347 4.56366 5
    endloop
  endfacet
  facet normal -0 0 1
    outer loop
      vertex 10.5859 34.9551 5
      vertex 12.2779 4.65876 5
      vertex 12.2779 35.3412 5
    endloop
  endfacet
  facet normal 0 0 1
    outer loop
      vertex 10.5859 34.9551 5
      vertex 10.5859 5.04495 5
      vertex 12.2779 4.65876 5
    endloop
  endfacet
  facet normal -0 0 1
    outer loop
      vertex 5 34.9551 5
      vertex 10.5859 5.04495 5
      vertex 10.5859 34.9551 5
    endloop
  endfacet
  facet normal 0 0 1
    outer loop
      vertex 10.5859 5.04495 5
      vertex 5 34.9551 5
      vertex 5 5.04495 5
    endloop
  endfacet
  facet normal -0 0 1
    outer loop
      vertex 12.347 75.4363 5
      vertex 13.1 43 5
      vertex 13.1 77 5
    endloop
  endfacet
  facet normal 0 0 1
    outer loop
      vertex 12.347 75.4363 5
      vertex 12.347 44.5637 5
      vertex 13.1 43 5
    endloop
  endfacet
  facet normal -0 0 1
    outer loop
      vertex 12.2779 75.3412 5
      vertex 12.347 44.5637 5
      vertex 12.347 75.4363 5
    endloop
  endfacet
  facet normal 0 0 1
    outer loop
      vertex 12.2779 75.3412 5
      vertex 12.2779 44.6588 5
      vertex 12.347 44.5637 5
    endloop
  endfacet
  facet normal -0 0 1
    outer loop
      vertex 10.5859 74.955 5
      vertex 12.2779 44.6588 5
      vertex 12.2779 75.3412 5
    endloop
  endfacet
  facet normal 0 0 1
    outer loop
      vertex 10.5859 74.955 5
      vertex 10.5859 45.0449 5
      vertex 12.2779 44.6588 5
    endloop
  endfacet
  facet normal -0 0 1
    outer loop
      vertex 5 74.955 5
      vertex 10.5859 45.0449 5
      vertex 10.5859 74.955 5
    endloop
  endfacet
  facet normal 0 0 1
    outer loop
      vertex 10.5859 45.0449 5
      vertex 5 74.955 5
      vertex 5 45.0449 5
    endloop
  endfacet
  facet normal 0 0 1
    outer loop
      vertex 13.1 77 5
      vertex 55 100 5
      vertex 13.1 83 5
    endloop
  endfacet
  facet normal 0 0 1
    outer loop
      vertex 55 100 5
      vertex 12.347 84.5637 5
      vertex 13.1 83 5
    endloop
  endfacet
  facet normal 0 0 1
    outer loop
      vertex 55 100 5
      vertex 12.2779 84.6588 5
      vertex 12.347 84.5637 5
    endloop
  endfacet
  facet normal -0 0 1
    outer loop
      vertex 5 100 5
      vertex 12.2779 84.6588 5
      vertex 55 100 5
    endloop
  endfacet
  facet normal 0 0 1
    outer loop
      vertex 12.2779 84.6588 5
      vertex 5 100 5
      vertex 10.5859 85.045 5
    endloop
  endfacet
  facet normal 0 0 1
    outer loop
      vertex 10.5859 85.045 5
      vertex 5 100 5
      vertex 5 85.045 5
    endloop
  endfacet
  facet normal 0 0 1
    outer loop
      vertex 13.1 43 5
      vertex 55 100 5
      vertex 13.1 77 5
    endloop
  endfacet
  facet normal 0 0 1
    outer loop
      vertex 55 100 5
      vertex 13.1 43 5
      vertex 55 0 5
    endloop
  endfacet
  facet normal -0 0 1
    outer loop
      vertex 13.1 37 5
      vertex 55 0 5
      vertex 13.1 43 5
    endloop
  endfacet
  facet normal -0 0 1
    outer loop
      vertex 12.347 35.4363 5
      vertex 55 0 5
      vertex 13.1 37 5
    endloop
  endfacet
  facet normal 0 0 1
    outer loop
      vertex 55 0 5
      vertex 13.1 3 5
      vertex 13.1 0 5
    endloop
  endfacet
  facet normal 0 0 -1
    outer loop
      vertex 12.347 44.5637 0
      vertex 13.1 77 0
      vertex 13.1 43 0
    endloop
  endfacet
  facet normal 0 0 -1
    outer loop
      vertex 12.347 44.5637 0
      vertex 12.347 75.4363 0
      vertex 13.1 77 0
    endloop
  endfacet
  facet normal 0 0 -1
    outer loop
      vertex 12.2779 44.6588 0
      vertex 12.347 75.4363 0
      vertex 12.347 44.5637 0
    endloop
  endfacet
  facet normal 0 0 -1
    outer loop
      vertex 12.2779 44.6588 0
      vertex 12.2779 75.3412 0
      vertex 12.347 75.4363 0
    endloop
  endfacet
  facet normal 0 0 -1
    outer loop
      vertex 10.5859 45.0449 0
      vertex 12.2779 75.3412 0
      vertex 12.2779 44.6588 0
    endloop
  endfacet
  facet normal 0 0 -1
    outer loop
      vertex 10.5859 45.0449 0
      vertex 10.5859 74.955 0
      vertex 12.2779 75.3412 0
    endloop
  endfacet
  facet normal 0 0 -1
    outer loop
      vertex 5 45.0449 0
      vertex 10.5859 74.955 0
      vertex 10.5859 45.0449 0
    endloop
  endfacet
  facet normal -0 0 -1
    outer loop
      vertex 10.5859 74.955 0
      vertex 5 45.0449 0
      vertex 5 74.955 0
    endloop
  endfacet
  facet normal 0 0 -1
    outer loop
      vertex 12.347 35.4363 0
      vertex 55 0 0
      vertex 12.347 4.56366 0
    endloop
  endfacet
  facet normal 0 0 -1
    outer loop
      vertex 55 0 0
      vertex 12.347 35.4363 0
      vertex 13.1 37 0
    endloop
  endfacet
  facet normal 0 0 -1
    outer loop
      vertex 12.2779 4.65876 0
      vertex 12.347 35.4363 0
      vertex 12.347 4.56366 0
    endloop
  endfacet
  facet normal 0 0 -1
    outer loop
      vertex 12.2779 4.65876 0
      vertex 12.2779 35.3412 0
      vertex 12.347 35.4363 0
    endloop
  endfacet
  facet normal 0 0 -1
    outer loop
      vertex 10.5859 5.04495 0
      vertex 12.2779 35.3412 0
      vertex 12.2779 4.65876 0
    endloop
  endfacet
  facet normal 0 0 -1
    outer loop
      vertex 10.5859 5.04495 0
      vertex 10.5859 34.9551 0
      vertex 12.2779 35.3412 0
    endloop
  endfacet
  facet normal 0 0 -1
    outer loop
      vertex 5 5.04495 0
      vertex 10.5859 34.9551 0
      vertex 10.5859 5.04495 0
    endloop
  endfacet
  facet normal -0 0 -1
    outer loop
      vertex 10.5859 34.9551 0
      vertex 5 5.04495 0
      vertex 5 34.9551 0
    endloop
  endfacet
  facet normal 0 0 -1
    outer loop
      vertex 13.1 3 0
      vertex 55 0 0
      vertex 13.1 0 0
    endloop
  endfacet
  facet normal 0 0 -1
    outer loop
      vertex 12.347 4.56366 0
      vertex 55 0 0
      vertex 13.1 3 0
    endloop
  endfacet
  facet normal 0 0 -1
    outer loop
      vertex 13.1 43 0
      vertex 55 0 0
      vertex 13.1 37 0
    endloop
  endfacet
  facet normal 0 0 -1
    outer loop
      vertex 55 0 0
      vertex 13.1 43 0
      vertex 55 100 0
    endloop
  endfacet
  facet normal 0 0 -1
    outer loop
      vertex 13.1 77 0
      vertex 55 100 0
      vertex 13.1 43 0
    endloop
  endfacet
  facet normal 0 0 -1
    outer loop
      vertex 13.1 83 0
      vertex 55 100 0
      vertex 13.1 77 0
    endloop
  endfacet
  facet normal 0 0 -1
    outer loop
      vertex 12.347 84.5637 0
      vertex 55 100 0
      vertex 13.1 83 0
    endloop
  endfacet
  facet normal 0 0 -1
    outer loop
      vertex 12.2779 84.6588 0
      vertex 55 100 0
      vertex 12.347 84.5637 0
    endloop
  endfacet
  facet normal 0 0 -1
    outer loop
      vertex 5 100 0
      vertex 12.2779 84.6588 0
      vertex 10.5859 85.045 0
    endloop
  endfacet
  facet normal 0 0 -1
    outer loop
      vertex 5 100 0
      vertex 10.5859 85.045 0
      vertex 5 85.045 0
    endloop
  endfacet
  facet normal 0 0 -1
    outer loop
      vertex 12.2779 84.6588 0
      vertex 5 100 0
      vertex 55 100 0
    endloop
  endfacet
  facet normal 0 1 -0
    outer loop
      vertex 55 100 0
      vertex 5 100 5
      vertex 55 100 5
    endloop
  endfacet
  facet normal 0 1 0
    outer loop
      vertex 5 100 5
      vertex 55 100 0
      vertex 5 100 0
    endloop
  endfacet
  facet normal 0 -1 0
    outer loop
      vertex 13.1 0 0
      vertex 55 0 5
      vertex 13.1 0 5
    endloop
  endfacet
  facet normal 0 -1 -0
    outer loop
      vertex 55 0 5
      vertex 13.1 0 0
      vertex 55 0 0
    endloop
  endfacet
  facet normal -1 0 0
    outer loop
      vertex 5 85.045 0
      vertex 5 100 5
      vertex 5 100 0
    endloop
  endfacet
  facet normal -1 -0 0
    outer loop
      vertex 5 100 5
      vertex 5 85.045 0
      vertex 5 85.045 5
    endloop
  endfacet
  facet normal -1 0 0
    outer loop
      vertex 5 5.04495 0
      vertex 5 34.9551 5
      vertex 5 34.9551 0
    endloop
  endfacet
  facet normal -1 -0 0
    outer loop
      vertex 5 34.9551 5
      vertex 5 5.04495 0
      vertex 5 5.04495 5
    endloop
  endfacet
  facet normal -1 0 0
    outer loop
      vertex 5 45.0449 0
      vertex 5 74.955 5
      vertex 5 74.955 0
    endloop
  endfacet
  facet normal -1 -0 0
    outer loop
      vertex 5 74.955 5
      vertex 5 45.0449 0
      vertex 5 45.0449 5
    endloop
  endfacet
  facet normal -0.222522 -0.974928 0
    outer loop
      vertex 10.5859 5.04495 0
      vertex 12.2779 4.65876 5
      vertex 10.5859 5.04495 5
    endloop
  endfacet
  facet normal -0.222522 -0.974928 -0
    outer loop
      vertex 12.2779 4.65876 5
      vertex 10.5859 5.04495 0
      vertex 12.2779 4.65876 0
    endloop
  endfacet
  facet normal 0 -1 0
    outer loop
      vertex 5 5.04495 0
      vertex 10.5859 5.04495 5
      vertex 5 5.04495 5
    endloop
  endfacet
  facet normal 0 -1 -0
    outer loop
      vertex 10.5859 5.04495 5
      vertex 5 5.04495 0
      vertex 10.5859 5.04495 0
    endloop
  endfacet
  facet normal -0.808994 -0.587818 0
    outer loop
      vertex 12.347 4.56366 0
      vertex 12.2779 4.65876 5
      vertex 12.2779 4.65876 0
    endloop
  endfacet
  facet normal -0.808994 -0.587818 0
    outer loop
      vertex 12.2779 4.65876 5
      vertex 12.347 4.56366 0
      vertex 12.347 4.56366 5
    endloop
  endfacet
  facet normal -0.900973 -0.433875 0
    outer loop
      vertex 13.1 3 0
      vertex 12.347 4.56366 5
      vertex 12.347 4.56366 0
    endloop
  endfacet
  facet normal -0.900973 -0.433875 0
    outer loop
      vertex 12.347 4.56366 5
      vertex 13.1 3 0
      vertex 13.1 3 5
    endloop
  endfacet
  facet normal -1 0 0
    outer loop
      vertex 13.1 0 0
      vertex 13.1 3 5
      vertex 13.1 3 0
    endloop
  endfacet
  facet normal -1 -0 0
    outer loop
      vertex 13.1 3 5
      vertex 13.1 0 0
      vertex 13.1 0 5
    endloop
  endfacet
  facet normal -0.222473 -0.974939 0
    outer loop
      vertex 10.5859 45.0449 0
      vertex 12.2779 44.6588 5
      vertex 10.5859 45.0449 5
    endloop
  endfacet
  facet normal -0.222473 -0.974939 -0
    outer loop
      vertex 12.2779 44.6588 5
      vertex 10.5859 45.0449 0
      vertex 12.2779 44.6588 0
    endloop
  endfacet
  facet normal -1 0 0
    outer loop
      vertex 13.1 37 0
      vertex 13.1 43 5
      vertex 13.1 43 0
    endloop
  endfacet
  facet normal -1 -0 0
    outer loop
      vertex 13.1 43 5
      vertex 13.1 37 0
      vertex 13.1 37 5
    endloop
  endfacet
  facet normal 0 -1 0
    outer loop
      vertex 5 45.0449 0
      vertex 10.5859 45.0449 5
      vertex 5 45.0449 5
    endloop
  endfacet
  facet normal 0 -1 -0
    outer loop
      vertex 10.5859 45.0449 5
      vertex 5 45.0449 0
      vertex 10.5859 45.0449 0
    endloop
  endfacet
  facet normal -0.900977 0.433866 0
    outer loop
      vertex 12.347 35.4363 0
      vertex 13.1 37 5
      vertex 13.1 37 0
    endloop
  endfacet
  facet normal -0.900977 0.433866 0
    outer loop
      vertex 13.1 37 5
      vertex 12.347 35.4363 0
      vertex 12.347 35.4363 5
    endloop
  endfacet
  facet normal -0.808994 -0.587818 0
    outer loop
      vertex 12.347 44.5637 0
      vertex 12.2779 44.6588 5
      vertex 12.2779 44.6588 0
    endloop
  endfacet
  facet normal -0.808994 -0.587818 0
    outer loop
      vertex 12.2779 44.6588 5
      vertex 12.347 44.5637 0
      vertex 12.347 44.5637 5
    endloop
  endfacet
  facet normal -0.808994 0.587818 0
    outer loop
      vertex 12.2779 35.3412 0
      vertex 12.347 35.4363 5
      vertex 12.347 35.4363 0
    endloop
  endfacet
  facet normal -0.808994 0.587818 0
    outer loop
      vertex 12.347 35.4363 5
      vertex 12.2779 35.3412 0
      vertex 12.2779 35.3412 5
    endloop
  endfacet
  facet normal -0.900977 -0.433866 0
    outer loop
      vertex 13.1 43 0
      vertex 12.347 44.5637 5
      vertex 12.347 44.5637 0
    endloop
  endfacet
  facet normal -0.900977 -0.433866 0
    outer loop
      vertex 12.347 44.5637 5
      vertex 13.1 43 0
      vertex 13.1 43 5
    endloop
  endfacet
  facet normal -0.222473 0.974939 0
    outer loop
      vertex 12.2779 35.3412 0
      vertex 10.5859 34.9551 5
      vertex 12.2779 35.3412 5
    endloop
  endfacet
  facet normal -0.222473 0.974939 0
    outer loop
      vertex 10.5859 34.9551 5
      vertex 12.2779 35.3412 0
      vertex 10.5859 34.9551 0
    endloop
  endfacet
  facet normal 0 1 -0
    outer loop
      vertex 10.5859 34.9551 0
      vertex 5 34.9551 5
      vertex 10.5859 34.9551 5
    endloop
  endfacet
  facet normal 0 1 0
    outer loop
      vertex 5 34.9551 5
      vertex 10.5859 34.9551 0
      vertex 5 34.9551 0
    endloop
  endfacet
  facet normal -0.222528 -0.974926 0
    outer loop
      vertex 10.5859 85.045 0
      vertex 12.2779 84.6588 5
      vertex 10.5859 85.045 5
    endloop
  endfacet
  facet normal -0.222528 -0.974926 -0
    outer loop
      vertex 12.2779 84.6588 5
      vertex 10.5859 85.045 0
      vertex 12.2779 84.6588 0
    endloop
  endfacet
  facet normal -1 0 0
    outer loop
      vertex 13.1 77 0
      vertex 13.1 83 5
      vertex 13.1 83 0
    endloop
  endfacet
  facet normal -1 -0 0
    outer loop
      vertex 13.1 83 5
      vertex 13.1 77 0
      vertex 13.1 77 5
    endloop
  endfacet
  facet normal 0 -1 0
    outer loop
      vertex 5 85.045 0
      vertex 10.5859 85.045 5
      vertex 5 85.045 5
    endloop
  endfacet
  facet normal 0 -1 -0
    outer loop
      vertex 10.5859 85.045 5
      vertex 5 85.045 0
      vertex 10.5859 85.045 0
    endloop
  endfacet
  facet normal -0.900977 0.433866 0
    outer loop
      vertex 12.347 75.4363 0
      vertex 13.1 77 5
      vertex 13.1 77 0
    endloop
  endfacet
  facet normal -0.900977 0.433866 0
    outer loop
      vertex 13.1 77 5
      vertex 12.347 75.4363 0
      vertex 12.347 75.4363 5
    endloop
  endfacet
  facet normal 0 1 -0
    outer loop
      vertex 10.5859 74.955 0
      vertex 5 74.955 5
      vertex 10.5859 74.955 5
    endloop
  endfacet
  facet normal 0 1 0
    outer loop
      vertex 5 74.955 5
      vertex 10.5859 74.955 0
      vertex 5 74.955 0
    endloop
  endfacet
  facet normal -0.808994 -0.587818 0
    outer loop
      vertex 12.347 84.5637 0
      vertex 12.2779 84.6588 5
      vertex 12.2779 84.6588 0
    endloop
  endfacet
  facet normal -0.808994 -0.587818 0
    outer loop
      vertex 12.2779 84.6588 5
      vertex 12.347 84.5637 0
      vertex 12.347 84.5637 5
    endloop
  endfacet
  facet normal -0.808994 0.587818 0
    outer loop
      vertex 12.2779 75.3412 0
      vertex 12.347 75.4363 5
      vertex 12.347 75.4363 0
    endloop
  endfacet
  facet normal -0.808994 0.587818 0
    outer loop
      vertex 12.347 75.4363 5
      vertex 12.2779 75.3412 0
      vertex 12.2779 75.3412 5
    endloop
  endfacet
  facet normal -0.900977 -0.433866 0
    outer loop
      vertex 13.1 83 0
      vertex 12.347 84.5637 5
      vertex 12.347 84.5637 0
    endloop
  endfacet
  facet normal -0.900977 -0.433866 0
    outer loop
      vertex 12.347 84.5637 5
      vertex 13.1 83 0
      vertex 13.1 83 5
    endloop
  endfacet
  facet normal -0.222528 0.974926 0
    outer loop
      vertex 12.2779 75.3412 0
      vertex 10.5859 74.955 5
      vertex 12.2779 75.3412 5
    endloop
  endfacet
  facet normal -0.222528 0.974926 0
    outer loop
      vertex 10.5859 74.955 5
      vertex 12.2779 75.3412 0
      vertex 10.5859 74.955 0
    endloop
  endfacet
  facet normal 0 1 -0
    outer loop
      vertex 0.554962 4.94984 0
      vertex -5 4.94984 5
      vertex 0.554962 4.94984 5
    endloop
  endfacet
  facet normal 0 1 0
    outer loop
      vertex -5 4.94984 5
      vertex 0.554962 4.94984 0
      vertex -5 4.94984 0
    endloop
  endfacet
  facet normal 1 -0 0
    outer loop
      vertex 3 0 5
      vertex 3 3 0
      vertex 3 3 5
    endloop
  endfacet
  facet normal 1 0 0
    outer loop
      vertex 3 3 0
      vertex 3 0 5
      vertex 3 0 0
    endloop
  endfacet
  facet normal 0.222514 0.974929 -0
    outer loop
      vertex 2.24698 4.56366 0
      vertex 0.554962 4.94984 5
      vertex 2.24698 4.56366 5
    endloop
  endfacet
  facet normal 0.222514 0.974929 0
    outer loop
      vertex 0.554962 4.94984 5
      vertex 2.24698 4.56366 0
      vertex 0.554962 4.94984 0
    endloop
  endfacet
  facet normal 0.900969 0.433884 0
    outer loop
      vertex 3 3 5
      vertex 2.24698 4.56366 0
      vertex 2.24698 4.56366 5
    endloop
  endfacet
  facet normal 0.900969 0.433884 0
    outer loop
      vertex 2.24698 4.56366 0
      vertex 3 3 5
      vertex 3 3 0
    endloop
  endfacet
  facet normal 0 -1 0
    outer loop
      vertex -5 35.0502 0
      vertex 0.554962 35.0502 5
      vertex -5 35.0502 5
    endloop
  endfacet
  facet normal 0 -1 -0
    outer loop
      vertex 0.554962 35.0502 5
      vertex -5 35.0502 0
      vertex 0.554962 35.0502 0
    endloop
  endfacet
  facet normal 0 1 -0
    outer loop
      vertex 0.554962 44.9498 0
      vertex -5 44.9498 5
      vertex 0.554962 44.9498 5
    endloop
  endfacet
  facet normal 0 1 0
    outer loop
      vertex -5 44.9498 5
      vertex 0.554962 44.9498 0
      vertex -5 44.9498 0
    endloop
  endfacet
  facet normal 1 -0 0
    outer loop
      vertex 3 37 5
      vertex 3 43 0
      vertex 3 43 5
    endloop
  endfacet
  facet normal 1 0 0
    outer loop
      vertex 3 43 0
      vertex 3 37 5
      vertex 3 37 0
    endloop
  endfacet
  facet normal 0.222471 0.974939 -0
    outer loop
      vertex 2.24698 44.5637 0
      vertex 0.554962 44.9498 5
      vertex 2.24698 44.5637 5
    endloop
  endfacet
  facet normal 0.222471 0.974939 0
    outer loop
      vertex 0.554962 44.9498 5
      vertex 2.24698 44.5637 0
      vertex 0.554962 44.9498 0
    endloop
  endfacet
  facet normal 0.222471 -0.974939 0
    outer loop
      vertex 0.554962 35.0502 0
      vertex 2.24698 35.4363 5
      vertex 0.554962 35.0502 5
    endloop
  endfacet
  facet normal 0.222471 -0.974939 0
    outer loop
      vertex 2.24698 35.4363 5
      vertex 0.554962 35.0502 0
      vertex 2.24698 35.4363 0
    endloop
  endfacet
  facet normal 0.900973 0.433875 0
    outer loop
      vertex 3 43 5
      vertex 2.24698 44.5637 0
      vertex 2.24698 44.5637 5
    endloop
  endfacet
  facet normal 0.900973 0.433875 0
    outer loop
      vertex 2.24698 44.5637 0
      vertex 3 43 5
      vertex 3 43 0
    endloop
  endfacet
  facet normal 0.900973 -0.433875 0
    outer loop
      vertex 2.24698 35.4363 5
      vertex 3 37 0
      vertex 3 37 5
    endloop
  endfacet
  facet normal 0.900973 -0.433875 0
    outer loop
      vertex 3 37 0
      vertex 2.24698 35.4363 5
      vertex 2.24698 35.4363 0
    endloop
  endfacet
  facet normal 0 -1 0
    outer loop
      vertex -5 75.0502 0
      vertex 0.554962 75.0502 5
      vertex -5 75.0502 5
    endloop
  endfacet
  facet normal 0 -1 -0
    outer loop
      vertex 0.554962 75.0502 5
      vertex -5 75.0502 0
      vertex 0.554962 75.0502 0
    endloop
  endfacet
  facet normal 0 1 -0
    outer loop
      vertex 0.554962 84.9498 0
      vertex -5 84.9498 5
      vertex 0.554962 84.9498 5
    endloop
  endfacet
  facet normal 0 1 0
    outer loop
      vertex -5 84.9498 5
      vertex 0.554962 84.9498 0
      vertex -5 84.9498 0
    endloop
  endfacet
  facet normal 1 -0 0
    outer loop
      vertex 3 77 5
      vertex 3 83 0
      vertex 3 83 5
    endloop
  endfacet
  facet normal 1 0 0
    outer loop
      vertex 3 83 0
      vertex 3 77 5
      vertex 3 77 0
    endloop
  endfacet
  facet normal 0.222471 0.974939 -0
    outer loop
      vertex 2.24698 84.5637 0
      vertex 0.554962 84.9498 5
      vertex 2.24698 84.5637 5
    endloop
  endfacet
  facet normal 0.222471 0.974939 0
    outer loop
      vertex 0.554962 84.9498 5
      vertex 2.24698 84.5637 0
      vertex 0.554962 84.9498 0
    endloop
  endfacet
  facet normal 0.222471 -0.974939 0
    outer loop
      vertex 0.554962 75.0502 0
      vertex 2.24698 75.4363 5
      vertex 0.554962 75.0502 5
    endloop
  endfacet
  facet normal 0.222471 -0.974939 0
    outer loop
      vertex 2.24698 75.4363 5
      vertex 0.554962 75.0502 0
      vertex 2.24698 75.4363 0
    endloop
  endfacet
  facet normal 0.900973 0.433875 0
    outer loop
      vertex 3 83 5
      vertex 2.24698 84.5637 0
      vertex 2.24698 84.5637 5
    endloop
  endfacet
  facet normal 0.900973 0.433875 0
    outer loop
      vertex 2.24698 84.5637 0
      vertex 3 83 5
      vertex 3 83 0
    endloop
  endfacet
  facet normal 0.900973 -0.433875 0
    outer loop
      vertex 2.24698 75.4363 5
      vertex 3 77 0
      vertex 3 77 5
    endloop
  endfacet
  facet normal 0.900973 -0.433875 0
    outer loop
      vertex 3 77 0
      vertex 2.24698 75.4363 5
      vertex 2.24698 75.4363 0
    endloop
  endfacet
  facet normal 1 -0 0
    outer loop
      vertex -5 84.9498 5
      vertex -5 100 0
      vertex -5 100 5
    endloop
  endfacet
  facet normal 1 0 0
    outer loop
      vertex -5 100 0
      vertex -5 84.9498 5
      vertex -5 84.9498 0
    endloop
  endfacet
  facet normal 1 -0 0
    outer loop
      vertex -5 44.9498 5
      vertex -5 75.0502 0
      vertex -5 75.0502 5
    endloop
  endfacet
  facet normal 1 0 0
    outer loop
      vertex -5 75.0502 0
      vertex -5 44.9498 5
      vertex -5 44.9498 0
    endloop
  endfacet
  facet normal 1 -0 0
    outer loop
      vertex -5 4.94984 5
      vertex -5 35.0502 0
      vertex -5 35.0502 5
    endloop
  endfacet
  facet normal 1 0 0
    outer loop
      vertex -5 35.0502 0
      vertex -5 4.94984 5
      vertex -5 4.94984 0
    endloop
  endfacet
  facet normal -0 0 1
    outer loop
      vertex -55 100 5
      vertex -5 84.9498 5
      vertex -5 100 5
    endloop
  endfacet
  facet normal 0 0 1
    outer loop
      vertex -5 84.9498 5
      vertex -55 100 5
      vertex -5 75.0502 5
    endloop
  endfacet
  facet normal 0 0 1
    outer loop
      vertex -5 75.0502 5
      vertex -55 100 5
      vertex -5 44.9498 5
    endloop
  endfacet
  facet normal 0 0 1
    outer loop
      vertex -55 0 5
      vertex -5 44.9498 5
      vertex -55 100 5
    endloop
  endfacet
  facet normal 0 0 1
    outer loop
      vertex -5 44.9498 5
      vertex -55 0 5
      vertex -5 35.0502 5
    endloop
  endfacet
  facet normal 0 0 1
    outer loop
      vertex 0.554962 84.9498 5
      vertex 3 83 5
      vertex 2.24698 84.5637 5
    endloop
  endfacet
  facet normal 0 0 1
    outer loop
      vertex 3 83 5
      vertex 0.554962 84.9498 5
      vertex 3 77 5
    endloop
  endfacet
  facet normal 0 0 1
    outer loop
      vertex 0.554962 75.0502 5
      vertex 3 77 5
      vertex 0.554962 84.9498 5
    endloop
  endfacet
  facet normal 0 0 1
    outer loop
      vertex 3 77 5
      vertex 0.554962 75.0502 5
      vertex 2.24698 75.4363 5
    endloop
  endfacet
  facet normal -0 0 1
    outer loop
      vertex -5 84.9498 5
      vertex 0.554962 75.0502 5
      vertex 0.554962 84.9498 5
    endloop
  endfacet
  facet normal 0 0 1
    outer loop
      vertex 0.554962 75.0502 5
      vertex -5 84.9498 5
      vertex -5 75.0502 5
    endloop
  endfacet
  facet normal 0 0 1
    outer loop
      vertex 0.554962 44.9498 5
      vertex 3 43 5
      vertex 2.24698 44.5637 5
    endloop
  endfacet
  facet normal 0 0 1
    outer loop
      vertex 3 43 5
      vertex 0.554962 44.9498 5
      vertex 3 37 5
    endloop
  endfacet
  facet normal 0 0 1
    outer loop
      vertex 0.554962 35.0502 5
      vertex 3 37 5
      vertex 0.554962 44.9498 5
    endloop
  endfacet
  facet normal 0 0 1
    outer loop
      vertex 3 37 5
      vertex 0.554962 35.0502 5
      vertex 2.24698 35.4363 5
    endloop
  endfacet
  facet normal -0 0 1
    outer loop
      vertex -5 44.9498 5
      vertex 0.554962 35.0502 5
      vertex 0.554962 44.9498 5
    endloop
  endfacet
  facet normal 0 0 1
    outer loop
      vertex 0.554962 35.0502 5
      vertex -5 44.9498 5
      vertex -5 35.0502 5
    endloop
  endfacet
  facet normal 0 0 1
    outer loop
      vertex 0.554962 4.94984 5
      vertex 3 3 5
      vertex 2.24698 4.56366 5
    endloop
  endfacet
  facet normal 0 0 1
    outer loop
      vertex 3 3 5
      vertex 0.554962 4.94984 5
      vertex 3 0 5
    endloop
  endfacet
  facet normal -0 0 1
    outer loop
      vertex -5 4.94984 5
      vertex 3 0 5
      vertex 0.554962 4.94984 5
    endloop
  endfacet
  facet normal 0 0 1
    outer loop
      vertex -5 4.94984 5
      vertex -55 0 5
      vertex 3 0 5
    endloop
  endfacet
  facet normal 0 0 1
    outer loop
      vertex -5 35.0502 5
      vertex -55 0 5
      vertex -5 4.94984 5
    endloop
  endfacet
  facet normal 0 0 -1
    outer loop
      vertex 0.554962 4.94984 0
      vertex 3 3 0
      vertex 3 0 0
    endloop
  endfacet
  facet normal 0 0 -1
    outer loop
      vertex 3 3 0
      vertex 0.554962 4.94984 0
      vertex 2.24698 4.56366 0
    endloop
  endfacet
  facet normal 0 0 -1
    outer loop
      vertex 3 0 0
      vertex -5 4.94984 0
      vertex 0.554962 4.94984 0
    endloop
  endfacet
  facet normal 0 0 -1
    outer loop
      vertex -55 0 0
      vertex -5 35.0502 0
      vertex -5 4.94984 0
    endloop
  endfacet
  facet normal -0 0 -1
    outer loop
      vertex -5 35.0502 0
      vertex -55 0 0
      vertex -5 44.9498 0
    endloop
  endfacet
  facet normal 0 0 -1
    outer loop
      vertex -55 100 0
      vertex -5 44.9498 0
      vertex -55 0 0
    endloop
  endfacet
  facet normal 0 0 -1
    outer loop
      vertex -5 44.9498 0
      vertex -55 100 0
      vertex -5 75.0502 0
    endloop
  endfacet
  facet normal 0 0 -1
    outer loop
      vertex -55 0 0
      vertex -5 4.94984 0
      vertex 3 0 0
    endloop
  endfacet
  facet normal 0 0 -1
    outer loop
      vertex -5 75.0502 0
      vertex -55 100 0
      vertex -5 84.9498 0
    endloop
  endfacet
  facet normal 0 0 -1
    outer loop
      vertex -5 84.9498 0
      vertex -55 100 0
      vertex -5 100 0
    endloop
  endfacet
  facet normal 0 0 -1
    outer loop
      vertex 0.554962 35.0502 0
      vertex 3 37 0
      vertex 2.24698 35.4363 0
    endloop
  endfacet
  facet normal -0 0 -1
    outer loop
      vertex 3 37 0
      vertex 0.554962 35.0502 0
      vertex 3 43 0
    endloop
  endfacet
  facet normal 0 0 -1
    outer loop
      vertex 0.554962 44.9498 0
      vertex 3 43 0
      vertex 0.554962 35.0502 0
    endloop
  endfacet
  facet normal 0 0 -1
    outer loop
      vertex 3 43 0
      vertex 0.554962 44.9498 0
      vertex 2.24698 44.5637 0
    endloop
  endfacet
  facet normal 0 0 -1
    outer loop
      vertex -5 35.0502 0
      vertex 0.554962 44.9498 0
      vertex 0.554962 35.0502 0
    endloop
  endfacet
  facet normal -0 0 -1
    outer loop
      vertex 0.554962 44.9498 0
      vertex -5 35.0502 0
      vertex -5 44.9498 0
    endloop
  endfacet
  facet normal 0 0 -1
    outer loop
      vertex 0.554962 75.0502 0
      vertex 3 77 0
      vertex 2.24698 75.4363 0
    endloop
  endfacet
  facet normal -0 0 -1
    outer loop
      vertex 3 77 0
      vertex 0.554962 75.0502 0
      vertex 3 83 0
    endloop
  endfacet
  facet normal 0 0 -1
    outer loop
      vertex 0.554962 84.9498 0
      vertex 3 83 0
      vertex 0.554962 75.0502 0
    endloop
  endfacet
  facet normal 0 0 -1
    outer loop
      vertex 3 83 0
      vertex 0.554962 84.9498 0
      vertex 2.24698 84.5637 0
    endloop
  endfacet
  facet normal 0 0 -1
    outer loop
      vertex -5 75.0502 0
      vertex 0.554962 84.9498 0
      vertex 0.554962 75.0502 0
    endloop
  endfacet
  facet normal -0 0 -1
    outer loop
      vertex 0.554962 84.9498 0
      vertex -5 75.0502 0
      vertex -5 84.9498 0
    endloop
  endfacet
  facet normal -1 0 0
    outer loop
      vertex -55 0 0
      vertex -55 100 5
      vertex -55 100 0
    endloop
  endfacet
  facet normal -1 -0 0
    outer loop
      vertex -55 100 5
      vertex -55 0 0
      vertex -55 0 5
    endloop
  endfacet
  facet normal 0 1 -0
    outer loop
      vertex -5 100 0
      vertex -55 100 5
      vertex -5 100 5
    endloop
  endfacet
  facet normal 0 1 0
    outer loop
      vertex -55 100 5
      vertex -5 100 0
      vertex -55 100 0
    endloop
  endfacet
  facet normal 0 -1 0
    outer loop
      vertex -55 0 0
      vertex 3 0 5
      vertex -55 0 5
    endloop
  endfacet
  facet normal 0 -1 -0
    outer loop
      vertex 3 0 5
      vertex -55 0 0
      vertex 3 0 0
    endloop
  endfacet
endsolid OpenSCAD_Model
